<svg width="22" height="24" viewBox="0 0 22 24" fill="none" xmlns="http://www.w3.org/2000/svg">
<path d="M21.9823 20.2064L20.611 7.32674C20.4919 6.13935 19.4783 5.21275 18.2263 5.21275H17.2728V4.34392C17.2728 1.94028 15.2756 0 12.8015 0H9.22433C6.75022 0 4.75306 1.94028 4.75306 4.34392V5.21275H3.76938C2.54718 5.21275 1.50399 6.13956 1.38465 7.32674L0.0133533 20.2064C-0.165466 22.2335 1.47402 24 3.59031 24H18.4349C20.5219 24 22.1911 22.2623 21.9823 20.2064ZM6.54156 4.34392C6.54156 2.89595 7.7338 1.73767 9.22422 1.73767H12.8012C14.2916 1.73767 15.4838 2.89595 15.4838 4.34392V5.21275H6.5413L6.54156 4.34392ZM19.7467 21.7123C19.3891 22.0888 18.9418 22.2625 18.4351 22.2625L3.59047 22.2623C3.08376 22.2623 2.6068 22.0595 2.27885 21.7121C1.92121 21.3355 1.77213 20.8723 1.83181 20.3798L3.2031 7.50019C3.23284 7.21052 3.47133 6.97903 3.79922 6.97903L4.75298 6.97923V10.1649C4.75298 10.6572 5.14056 11.0337 5.64729 11.0337C6.15402 11.0337 6.5416 10.6572 6.5416 10.1649V6.95016H15.4841V10.1358C15.4841 10.6281 15.8717 11.0046 16.3784 11.0046C16.8852 11.0046 17.2727 10.6281 17.2727 10.1358V6.95016H18.2564C18.5546 6.95016 18.8228 7.18187 18.8525 7.47133L20.2238 20.351C20.2536 20.8723 20.1045 21.3357 19.7467 21.7123Z" fill="#101010"/>
</svg>
