<svg width="212" height="24" viewBox="0 0 212 24" fill="none" xmlns="http://www.w3.org/2000/svg">
<path d="M0.0787143 16.4034C-0.223807 18.5882 0.347622 20.4034 1.75939 21.8487C3.20476 23.2941 5.12073 24 7.57451 24C10.0283 24 12.1459 23.2941 13.9611 21.8487C15.8098 20.4034 16.8854 18.6218 17.188 16.5042C17.4905 14.1849 16.9527 12.3697 15.6417 11.2605C14.3308 10.1513 13.1207 9.61345 11.272 9.07563C9.15434 8.43697 8.17955 7.96639 8.31401 6.92437C8.41485 6.21849 9.15434 5.71429 10.0619 5.71429C11.0367 5.71429 11.709 6.38655 11.5745 7.29412H18.1627C18.4653 5.21008 17.8938 3.46218 16.5157 2.08403C15.1375 0.705881 13.2888 0 10.9022 0C8.58292 0 6.5325 0.705881 4.75098 2.08403C3.00308 3.46218 1.99468 5.14286 1.69216 7.19328C1.15434 11.0252 3.0367 13.5462 7.3056 14.7227C8.68376 15.1261 9.35603 15.2605 10.0619 15.8992C10.4317 16.2017 10.5661 16.5378 10.5325 16.9076C10.4317 17.6807 9.52409 18.2857 8.48208 18.2857C7.3056 18.2857 6.5325 17.4454 6.66695 16.4034H0.0787143Z" fill="#101010"/>
<path d="M34.6197 12.2689L28.6029 0.40336H22.1827L18.9222 23.5966H25.3424L26.9894 11.7311L33.0062 23.5966H39.4264L42.6869 0.40336H36.2667L34.6197 12.2689Z" fill="#101010"/>
<path d="M109.775 0.40336H46.5065L43.246 23.5966H106.683L107.523 17.5462H50.5065L50.8762 14.958H106.649L107.523 8.90756H51.7166L52.0863 6.45378H108.935L109.775 0.40336Z" fill="#101010"/>
<path d="M132.092 23.5966L127.016 0.40336H119.453L107.856 23.5966H114.747L116.226 20.4034H124.495L125.066 23.5966H132.092ZM122.176 7.52941L123.419 14.4874H118.949L122.176 7.52941Z" fill="#101010"/>
<path d="M150.166 0.40336L143.779 8.90756H142.468L143.678 0.40336H137.258L133.997 23.5966H140.418L141.628 14.958H142.838L146.972 23.5966H154.939L148.821 11.8319L157.997 0.40336H150.166Z" fill="#101010"/>
<path d="M173.391 0.40336H159.711L156.45 23.5966H170.299L171.139 17.5462H163.711L164.08 14.958H170.265L171.139 8.90756H164.921L165.291 6.45378H172.551L173.391 0.40336Z" fill="#101010"/>
<path d="M192.587 8.57143C192.923 6.2521 192.385 4.30252 190.94 2.7563C189.528 1.17647 187.612 0.40336 185.158 0.40336H176.419L173.158 23.5966H179.579L180.587 16.4034H181.595L183.478 23.5966H191.175L188.285 14.958C190.772 13.4454 192.217 11.3277 192.587 8.57143ZM184.184 6.45378C185.394 6.45378 186.167 7.39496 185.999 8.63865C185.831 9.88235 184.789 10.8235 183.579 10.8235H181.36L181.999 6.45378H184.184Z" fill="#101010"/>
<path d="M193.148 16.4034C192.845 18.5882 193.417 20.4034 194.828 21.8487C196.274 23.2941 198.19 24 200.644 24C203.097 24 205.215 23.2941 207.03 21.8487C208.879 20.4034 209.954 18.6218 210.257 16.5042C210.559 14.1849 210.022 12.3697 208.711 11.2605C207.4 10.1513 206.19 9.61345 204.341 9.07563C202.223 8.43697 201.249 7.96639 201.383 6.92437C201.484 6.21849 202.223 5.71429 203.131 5.71429C204.106 5.71429 204.778 6.38655 204.644 7.29412H211.232C211.534 5.21008 210.963 3.46218 209.585 2.08403C208.207 0.705881 206.358 0 203.971 0C201.652 0 199.601 0.705881 197.82 2.08403C196.072 3.46218 195.064 5.14286 194.761 7.19328C194.223 11.0252 196.106 13.5462 200.375 14.7227C201.753 15.1261 202.425 15.2605 203.131 15.8992C203.501 16.2017 203.635 16.5378 203.601 16.9076C203.501 17.6807 202.593 18.2857 201.551 18.2857C200.375 18.2857 199.601 17.4454 199.736 16.4034H193.148Z" fill="#101010"/>
</svg>
