<svg width="16" height="16" viewBox="0 0 16 16" fill="none" xmlns="http://www.w3.org/2000/svg">
<path fill-rule="evenodd" clip-rule="evenodd" d="M11.8685 12.7722C10.613 13.8241 8.99481 14.4575 7.22874 14.4575C3.23642 14.4575 0 11.2211 0 7.22874C0 3.23642 3.23642 0 7.22874 0C11.2211 0 14.4575 3.23642 14.4575 7.22874C14.4575 8.80327 13.9541 10.2602 13.0994 11.4474L15.7353 14.0834C16.0882 14.4362 16.0882 15.0084 15.7353 15.3612C15.3825 15.7141 14.8103 15.7141 14.4575 15.3612L11.8685 12.7722ZM12.6503 7.22874C12.6503 10.223 10.223 12.6503 7.22874 12.6503C4.2345 12.6503 1.80718 10.223 1.80718 7.22874C1.80718 4.2345 4.2345 1.80718 7.22874 1.80718C10.223 1.80718 12.6503 4.2345 12.6503 7.22874Z" fill="#8C949C"/>
</svg>
